<svg width="190" height="42" viewBox="0 0 190 42" fill="none" xmlns="http://www.w3.org/2000/svg">
<path d="M21.032 16.592C22.76 17.24 24.116 18.2 25.1 19.472C26.108 20.72 26.612 22.124 26.612 23.684C26.612 25.196 25.952 26.624 24.632 27.968C23.336 29.288 21.716 30.344 19.772 31.136C17.828 31.928 15.968 32.324 14.192 32.324C12.992 32.324 11.816 32.264 10.664 32.144C8.744 32.024 7.256 31.964 6.2 31.964H0.728V29.948L4.112 27.284V7.052L0.116 6.008L1.304 3.668H6.164C8.348 3.668 10.496 3.596 12.608 3.452C14.24 3.356 15.44 3.308 16.208 3.308C17.984 3.308 19.544 3.62 20.888 4.244C22.256 4.868 23.312 5.72 24.056 6.8C24.8 7.856 25.172 9.044 25.172 10.364C25.172 11.54 24.788 12.668 24.02 13.748C23.276 14.828 22.28 15.788 21.032 16.628V16.592ZM18.26 12.272C18.26 10.544 17.852 9.152 17.036 8.096C16.22 7.04 15.008 6.512 13.4 6.512C12.416 6.512 11.492 6.716 10.628 7.124V16.376H14.66C15.836 16.376 16.724 16.028 17.324 15.332C17.948 14.636 18.26 13.616 18.26 12.272ZM15.236 28.76C16.628 28.76 17.72 28.4 18.512 27.68C19.328 26.96 19.736 25.976 19.736 24.728C19.736 23.096 19.28 21.764 18.368 20.732C17.48 19.676 16.148 19.1 14.372 19.004H13.652H10.628V27.968C11.996 28.496 13.52 28.76 15.2 28.76H15.236ZM39.8212 32H28.4452V29.984L31.6492 27.284V7.592L28.4452 5.468V3.452L35.5012 0.571999H37.7692V28.58L41.0092 29.66L39.8212 32ZM55.3982 12.236C57.1742 12.236 58.7582 12.656 60.1502 13.496C61.5422 14.312 62.6222 15.44 63.3902 16.88C64.1822 18.32 64.5782 19.916 64.5782 21.668C64.5782 23.564 63.9662 25.34 62.7422 26.996C61.5182 28.628 59.9822 29.936 58.1342 30.92C56.3102 31.88 54.5462 32.36 52.8422 32.36C51.0902 32.36 49.5062 31.952 48.0902 31.136C46.6982 30.296 45.6062 29.156 44.8142 27.716C44.0462 26.276 43.6622 24.68 43.6622 22.928C43.6622 21.032 44.2742 19.268 45.4982 17.636C46.7222 15.98 48.2462 14.672 50.0702 13.712C51.9182 12.728 53.6942 12.236 55.3982 12.236ZM53.3102 16.412C52.3022 16.412 51.5342 16.82 51.0062 17.636C50.5022 18.428 50.2502 19.616 50.2502 21.2C50.2502 23.216 50.6582 24.896 51.4742 26.24C52.2902 27.56 53.4422 28.22 54.9302 28.22C55.9142 28.22 56.6582 27.812 57.1622 26.996C57.6902 26.156 57.9542 24.944 57.9542 23.36C57.9542 21.344 57.5462 19.688 56.7302 18.392C55.9142 17.072 54.7742 16.412 53.3102 16.412ZM85.8286 16.088C86.2366 16.856 86.4406 17.672 86.4406 18.536C86.4406 20 85.8166 21.416 84.5686 22.784C83.3446 24.128 81.8206 25.148 79.9966 25.844C79.3726 26.564 79.0606 27.284 79.0606 28.004C79.0606 28.34 79.3246 28.676 79.8526 29.012C80.3806 29.324 81.2086 29.732 82.3366 30.236C83.9926 30.956 85.2646 31.616 86.1526 32.216C87.0406 32.84 87.4846 33.56 87.4846 34.376C87.4846 35.144 87.0046 36.092 86.0446 37.22C85.0846 38.372 83.8846 39.368 82.4446 40.208C81.0286 41.072 79.6486 41.504 78.3046 41.504C76.8406 41.504 75.1006 41.276 73.0846 40.82C71.0686 40.364 69.3886 39.908 68.0446 39.452V33.008H70.3126C71.4886 34.592 72.6766 35.792 73.8766 36.608C75.1006 37.448 76.4806 37.868 78.0166 37.868C78.8086 37.868 79.4686 37.688 79.9966 37.328C80.5486 36.992 80.8246 36.632 80.8246 36.248C80.8246 35.696 80.5006 35.204 79.8526 34.772C79.2286 34.364 78.2566 33.86 76.9366 33.26C75.5206 32.636 74.4526 32.084 73.7326 31.604C73.0126 31.1 72.6526 30.524 72.6526 29.876C72.6526 29.3 73.0846 28.712 73.9486 28.112C74.8366 27.512 75.8926 26.984 77.1166 26.528C76.6366 26.576 76.2766 26.6 76.0366 26.6C74.5726 26.6 73.2286 26.312 72.0046 25.736C70.8046 25.16 69.8566 24.392 69.1606 23.432C68.4646 22.448 68.1166 21.404 68.1166 20.3C68.1166 18.932 68.6206 17.624 69.6286 16.376C70.6366 15.128 71.9446 14.132 73.5526 13.388C75.1606 12.62 76.8046 12.236 78.4846 12.236C80.4046 12.236 82.0966 12.716 83.5606 13.676H89.5006L89.5366 16.088H85.8286ZM78.1606 22.496C78.9286 22.496 79.5166 22.316 79.9246 21.956C80.3566 21.572 80.5726 21.008 80.5726 20.264C80.5726 19.088 80.1886 18.164 79.4206 17.492C78.6766 16.796 77.6806 16.448 76.4326 16.448C74.8486 16.448 74.0566 17.156 74.0566 18.572C74.0566 19.724 74.4286 20.672 75.1726 21.416C75.9406 22.136 76.9366 22.496 78.1606 22.496ZM107.056 3.344C109.744 3.344 112.12 3.944 114.184 5.144C116.272 6.32 117.88 7.964 119.008 10.076C120.16 12.188 120.736 14.576 120.736 17.24C120.736 19.976 119.872 22.508 118.144 24.836C116.44 27.14 114.316 28.976 111.772 30.344C109.228 31.688 106.804 32.36 104.5 32.36C103.396 32.36 102.304 32.3 101.224 32.18C99.424 32.06 98.044 32 97.084 32H91.396V29.984L94.78 27.32V7.268L90.784 6.044L91.972 3.704H97.048C99.256 3.704 101.416 3.632 103.528 3.488C105.16 3.392 106.336 3.344 107.056 3.344ZM105.544 29.012C107.056 29.012 108.424 28.58 109.648 27.716C110.896 26.852 111.868 25.652 112.564 24.116C113.284 22.58 113.644 20.852 113.644 18.932C113.644 16.628 113.296 14.552 112.6 12.704C111.928 10.832 110.884 9.344 109.468 8.24C108.076 7.112 106.348 6.548 104.284 6.548C103.204 6.548 102.208 6.836 101.296 7.412V28.328C102.52 28.784 103.924 29.012 105.508 29.012H105.544ZM136.609 12.236C138.385 12.236 139.969 12.656 141.361 13.496C142.753 14.312 143.833 15.44 144.601 16.88C145.393 18.32 145.789 19.916 145.789 21.668C145.789 23.564 145.177 25.34 143.953 26.996C142.729 28.628 141.193 29.936 139.345 30.92C137.521 31.88 135.757 32.36 134.053 32.36C132.301 32.36 130.717 31.952 129.301 31.136C127.909 30.296 126.817 29.156 126.025 27.716C125.257 26.276 124.873 24.68 124.873 22.928C124.873 21.032 125.485 19.268 126.709 17.636C127.933 15.98 129.457 14.672 131.281 13.712C133.129 12.728 134.905 12.236 136.609 12.236ZM134.521 16.412C133.513 16.412 132.745 16.82 132.217 17.636C131.713 18.428 131.461 19.616 131.461 21.2C131.461 23.216 131.869 24.896 132.685 26.24C133.501 27.56 134.653 28.22 136.141 28.22C137.125 28.22 137.869 27.812 138.373 26.996C138.901 26.156 139.165 24.944 139.165 23.36C139.165 21.344 138.757 19.688 137.941 18.392C137.125 17.072 135.985 16.412 134.521 16.412ZM167.04 16.088C167.448 16.856 167.652 17.672 167.652 18.536C167.652 20 167.028 21.416 165.78 22.784C164.556 24.128 163.032 25.148 161.208 25.844C160.584 26.564 160.272 27.284 160.272 28.004C160.272 28.34 160.536 28.676 161.064 29.012C161.592 29.324 162.42 29.732 163.548 30.236C165.204 30.956 166.476 31.616 167.364 32.216C168.252 32.84 168.696 33.56 168.696 34.376C168.696 35.144 168.216 36.092 167.256 37.22C166.296 38.372 165.096 39.368 163.656 40.208C162.24 41.072 160.86 41.504 159.516 41.504C158.052 41.504 156.312 41.276 154.296 40.82C152.28 40.364 150.6 39.908 149.256 39.452V33.008H151.524C152.7 34.592 153.888 35.792 155.088 36.608C156.312 37.448 157.692 37.868 159.228 37.868C160.02 37.868 160.68 37.688 161.208 37.328C161.76 36.992 162.036 36.632 162.036 36.248C162.036 35.696 161.712 35.204 161.064 34.772C160.44 34.364 159.468 33.86 158.148 33.26C156.732 32.636 155.664 32.084 154.944 31.604C154.224 31.1 153.864 30.524 153.864 29.876C153.864 29.3 154.296 28.712 155.16 28.112C156.048 27.512 157.104 26.984 158.328 26.528C157.848 26.576 157.488 26.6 157.248 26.6C155.784 26.6 154.44 26.312 153.216 25.736C152.016 25.16 151.068 24.392 150.372 23.432C149.676 22.448 149.328 21.404 149.328 20.3C149.328 18.932 149.832 17.624 150.84 16.376C151.848 15.128 153.156 14.132 154.764 13.388C156.372 12.62 158.016 12.236 159.696 12.236C161.616 12.236 163.308 12.716 164.772 13.676H170.712L170.748 16.088H167.04ZM159.372 22.496C160.14 22.496 160.728 22.316 161.136 21.956C161.568 21.572 161.784 21.008 161.784 20.264C161.784 19.088 161.4 18.164 160.632 17.492C159.888 16.796 158.892 16.448 157.644 16.448C156.06 16.448 155.268 17.156 155.268 18.572C155.268 19.724 155.64 20.672 156.384 21.416C157.152 22.136 158.148 22.496 159.372 22.496ZM182.867 27.428C182.867 26.972 182.555 26.516 181.931 26.06C181.307 25.58 180.347 24.98 179.051 24.26C177.779 23.54 176.759 22.928 175.991 22.424C175.223 21.896 174.551 21.308 173.975 20.66C173.423 19.988 173.147 19.268 173.147 18.5C173.147 17.636 173.555 16.712 174.371 15.728C175.211 14.744 176.231 13.916 177.431 13.244C178.631 12.572 179.735 12.236 180.743 12.236C181.967 12.236 183.395 12.38 185.027 12.668C186.683 12.932 187.883 13.232 188.627 13.568V19.58H186.359C185.711 18.38 184.931 17.444 184.019 16.772C183.131 16.1 182.207 15.764 181.247 15.764C180.767 15.764 180.383 15.908 180.095 16.196C179.807 16.46 179.663 16.784 179.663 17.168C179.663 17.672 179.975 18.164 180.599 18.644C181.247 19.124 182.267 19.76 183.659 20.552C185.507 21.56 186.923 22.472 187.907 23.288C188.915 24.104 189.419 25.04 189.419 26.096C189.419 26.984 188.987 27.92 188.123 28.904C187.283 29.864 186.239 30.68 184.991 31.352C183.767 32.024 182.639 32.36 181.607 32.36C180.287 32.36 178.715 32.228 176.891 31.964C175.091 31.676 173.807 31.364 173.039 31.028V24.8H175.307C176.027 26.072 176.915 27.068 177.971 27.788C179.027 28.484 180.071 28.832 181.103 28.832C181.631 28.832 182.051 28.7 182.363 28.436C182.699 28.148 182.867 27.812 182.867 27.428Z" fill="white"/>
</svg>
